<mxfile host="app.diagrams.net" agent="Mozilla/5.0 (Windows NT 10.0; Win64; x64) AppleWebKit/537.36 (KHTML, like Gecko) Chrome/138.0.0.0 Safari/537.36 Edg/138.0.0.0" version="28.0.6">
  <diagram name="Page-1" id="dw8r4vGWWPHGJX5MbgEn">
    <mxGraphModel dx="952" dy="612" grid="1" gridSize="10" guides="1" tooltips="1" connect="1" arrows="1" fold="1" page="1" pageScale="1" pageWidth="850" pageHeight="1100" math="0" shadow="0">
      <root>
        <mxCell id="0" />
        <mxCell id="1" parent="0" />
        <mxCell id="yBF93ybyriXgRgCDw-TJ-5" value="Welcome to Chatbot" style="rounded=1;whiteSpace=wrap;html=1;" vertex="1" parent="1">
          <mxGeometry x="440" y="60" width="120" height="60" as="geometry" />
        </mxCell>
        <mxCell id="yBF93ybyriXgRgCDw-TJ-6" value="Ask for user name" style="shape=parallelogram;perimeter=parallelogramPerimeter;whiteSpace=wrap;html=1;fixedSize=1;" vertex="1" parent="1">
          <mxGeometry x="440" y="180" width="120" height="60" as="geometry" />
        </mxCell>
        <mxCell id="yBF93ybyriXgRgCDw-TJ-8" value="" style="endArrow=classic;html=1;rounded=0;exitX=0.5;exitY=1;exitDx=0;exitDy=0;entryX=0.5;entryY=0;entryDx=0;entryDy=0;" edge="1" parent="1" source="yBF93ybyriXgRgCDw-TJ-5" target="yBF93ybyriXgRgCDw-TJ-6">
          <mxGeometry width="50" height="50" relative="1" as="geometry">
            <mxPoint x="720" y="220" as="sourcePoint" />
            <mxPoint x="770" y="170" as="targetPoint" />
          </mxGeometry>
        </mxCell>
        <mxCell id="yBF93ybyriXgRgCDw-TJ-9" value="Greet the user" style="rounded=0;whiteSpace=wrap;html=1;" vertex="1" parent="1">
          <mxGeometry x="440" y="280" width="120" height="60" as="geometry" />
        </mxCell>
        <mxCell id="yBF93ybyriXgRgCDw-TJ-10" value="" style="endArrow=classic;html=1;rounded=0;exitX=0.5;exitY=1;exitDx=0;exitDy=0;entryX=0.5;entryY=0;entryDx=0;entryDy=0;" edge="1" parent="1" source="yBF93ybyriXgRgCDw-TJ-6" target="yBF93ybyriXgRgCDw-TJ-9">
          <mxGeometry width="50" height="50" relative="1" as="geometry">
            <mxPoint x="720" y="220" as="sourcePoint" />
            <mxPoint x="770" y="170" as="targetPoint" />
          </mxGeometry>
        </mxCell>
        <mxCell id="yBF93ybyriXgRgCDw-TJ-11" value="Good/Bad with/without prefix" style="rhombus;whiteSpace=wrap;html=1;" vertex="1" parent="1">
          <mxGeometry x="460" y="460" width="80" height="80" as="geometry" />
        </mxCell>
        <mxCell id="yBF93ybyriXgRgCDw-TJ-12" value="" style="endArrow=classic;html=1;rounded=0;exitX=0.5;exitY=1;exitDx=0;exitDy=0;entryX=0.5;entryY=0;entryDx=0;entryDy=0;" edge="1" parent="1" source="yBF93ybyriXgRgCDw-TJ-9" target="yBF93ybyriXgRgCDw-TJ-11">
          <mxGeometry width="50" height="50" relative="1" as="geometry">
            <mxPoint x="720" y="440" as="sourcePoint" />
            <mxPoint x="770" y="390" as="targetPoint" />
          </mxGeometry>
        </mxCell>
        <mxCell id="yBF93ybyriXgRgCDw-TJ-13" value="&lt;br&gt;&lt;span style=&quot;color: rgb(0, 0, 0); font-family: Helvetica; font-size: 11px; font-style: normal; font-variant-ligatures: normal; font-variant-caps: normal; font-weight: 400; letter-spacing: normal; orphans: 2; text-align: center; text-indent: 0px; text-transform: none; widows: 2; word-spacing: 0px; -webkit-text-stroke-width: 0px; white-space: nowrap; background-color: rgb(255, 255, 255); text-decoration-thickness: initial; text-decoration-style: initial; text-decoration-color: initial; float: none; display: inline !important;&quot;&gt;Good/Bad&amp;nbsp;&lt;/span&gt;&lt;div&gt;&lt;span style=&quot;color: rgb(0, 0, 0); font-family: Helvetica; font-size: 11px; font-style: normal; font-variant-ligatures: normal; font-variant-caps: normal; font-weight: 400; letter-spacing: normal; orphans: 2; text-align: center; text-indent: 0px; text-transform: none; widows: 2; word-spacing: 0px; -webkit-text-stroke-width: 0px; white-space: nowrap; background-color: rgb(255, 255, 255); text-decoration-thickness: initial; text-decoration-style: initial; text-decoration-color: initial; float: none; display: inline !important;&quot;&gt;with&amp;nbsp;&lt;/span&gt;&lt;/div&gt;&lt;div&gt;&lt;span style=&quot;color: rgb(0, 0, 0); font-family: Helvetica; font-size: 11px; font-style: normal; font-variant-ligatures: normal; font-variant-caps: normal; font-weight: 400; letter-spacing: normal; orphans: 2; text-align: center; text-indent: 0px; text-transform: none; widows: 2; word-spacing: 0px; -webkit-text-stroke-width: 0px; white-space: nowrap; background-color: rgb(255, 255, 255); text-decoration-thickness: initial; text-decoration-style: initial; text-decoration-color: initial; float: none; display: inline !important;&quot;&gt;prefix not&lt;/span&gt;&lt;br&gt;&lt;br&gt;&lt;/div&gt;" style="rhombus;whiteSpace=wrap;html=1;" vertex="1" parent="1">
          <mxGeometry x="320" y="590" width="80" height="80" as="geometry" />
        </mxCell>
        <mxCell id="yBF93ybyriXgRgCDw-TJ-14" value="&lt;br&gt;&lt;span style=&quot;color: rgb(0, 0, 0); font-family: Helvetica; font-size: 11px; font-style: normal; font-variant-ligatures: normal; font-variant-caps: normal; font-weight: 400; letter-spacing: normal; orphans: 2; text-align: center; text-indent: 0px; text-transform: none; widows: 2; word-spacing: 0px; -webkit-text-stroke-width: 0px; white-space: nowrap; background-color: rgb(255, 255, 255); text-decoration-thickness: initial; text-decoration-style: initial; text-decoration-color: initial; float: none; display: inline !important;&quot;&gt;Good/Bad&amp;nbsp;&lt;/span&gt;&lt;div&gt;&lt;span style=&quot;color: rgb(0, 0, 0); font-family: Helvetica; font-size: 11px; font-style: normal; font-variant-ligatures: normal; font-variant-caps: normal; font-weight: 400; letter-spacing: normal; orphans: 2; text-align: center; text-indent: 0px; text-transform: none; widows: 2; word-spacing: 0px; -webkit-text-stroke-width: 0px; white-space: nowrap; background-color: rgb(255, 255, 255); text-decoration-thickness: initial; text-decoration-style: initial; text-decoration-color: initial; float: none; display: inline !important;&quot;&gt;without&amp;nbsp;&lt;/span&gt;&lt;/div&gt;&lt;div&gt;&lt;span style=&quot;color: rgb(0, 0, 0); font-family: Helvetica; font-size: 11px; font-style: normal; font-variant-ligatures: normal; font-variant-caps: normal; font-weight: 400; letter-spacing: normal; orphans: 2; text-align: center; text-indent: 0px; text-transform: none; widows: 2; word-spacing: 0px; -webkit-text-stroke-width: 0px; white-space: nowrap; background-color: rgb(255, 255, 255); text-decoration-thickness: initial; text-decoration-style: initial; text-decoration-color: initial; float: none; display: inline !important;&quot;&gt;prefix not&lt;/span&gt;&lt;br&gt;&lt;br&gt;&lt;/div&gt;" style="rhombus;whiteSpace=wrap;html=1;" vertex="1" parent="1">
          <mxGeometry x="620" y="590" width="80" height="80" as="geometry" />
        </mxCell>
        <mxCell id="yBF93ybyriXgRgCDw-TJ-15" value="Good/Bad with prefix not" style="endArrow=classic;html=1;rounded=0;exitX=0;exitY=0.5;exitDx=0;exitDy=0;entryX=0.5;entryY=0;entryDx=0;entryDy=0;" edge="1" parent="1" source="yBF93ybyriXgRgCDw-TJ-11" target="yBF93ybyriXgRgCDw-TJ-13">
          <mxGeometry x="0.3684" y="-10" width="50" height="50" relative="1" as="geometry">
            <mxPoint x="720" y="620" as="sourcePoint" />
            <mxPoint x="770" y="570" as="targetPoint" />
            <Array as="points">
              <mxPoint x="360" y="500" />
            </Array>
            <mxPoint as="offset" />
          </mxGeometry>
        </mxCell>
        <mxCell id="yBF93ybyriXgRgCDw-TJ-16" value="Good/Bad without prefix not" style="endArrow=classic;html=1;rounded=0;exitX=1;exitY=0.5;exitDx=0;exitDy=0;entryX=0.5;entryY=0;entryDx=0;entryDy=0;" edge="1" parent="1" source="yBF93ybyriXgRgCDw-TJ-11" target="yBF93ybyriXgRgCDw-TJ-14">
          <mxGeometry x="0.3333" width="50" height="50" relative="1" as="geometry">
            <mxPoint x="720" y="620" as="sourcePoint" />
            <mxPoint x="770" y="570" as="targetPoint" />
            <Array as="points">
              <mxPoint x="660" y="500" />
            </Array>
            <mxPoint as="offset" />
          </mxGeometry>
        </mxCell>
        <mxCell id="yBF93ybyriXgRgCDw-TJ-17" value="print&amp;nbsp;&lt;div&gt;&lt;span style=&quot;color: rgb(15, 74, 133); background-color: rgb(255, 255, 255); font-family: Consolas, &amp;quot;Courier New&amp;quot;, monospace; font-size: 14px; white-space: pre;&quot;&gt;Hope you feel &lt;/span&gt;&lt;/div&gt;&lt;div&gt;&lt;span style=&quot;color: rgb(15, 74, 133); background-color: rgb(255, 255, 255); font-family: Consolas, &amp;quot;Courier New&amp;quot;, monospace; font-size: 14px; white-space: pre;&quot;&gt;well soon&lt;/span&gt;&lt;/div&gt;" style="rounded=0;whiteSpace=wrap;html=1;" vertex="1" parent="1">
          <mxGeometry x="130" y="720" width="120" height="60" as="geometry" />
        </mxCell>
        <mxCell id="yBF93ybyriXgRgCDw-TJ-18" value="Not Good" style="endArrow=classic;html=1;rounded=0;exitX=0;exitY=0.5;exitDx=0;exitDy=0;entryX=0.5;entryY=0;entryDx=0;entryDy=0;" edge="1" parent="1" source="yBF93ybyriXgRgCDw-TJ-13" target="yBF93ybyriXgRgCDw-TJ-17">
          <mxGeometry x="0.3593" width="50" height="50" relative="1" as="geometry">
            <mxPoint x="530" y="640" as="sourcePoint" />
            <mxPoint x="580" y="590" as="targetPoint" />
            <Array as="points">
              <mxPoint x="190" y="630" />
            </Array>
            <mxPoint as="offset" />
          </mxGeometry>
        </mxCell>
        <mxCell id="yBF93ybyriXgRgCDw-TJ-21" value="print&lt;div&gt;&lt;div style=&quot;color: rgb(41, 41, 41); background-color: rgb(255, 255, 255); font-family: Consolas, &amp;quot;Courier New&amp;quot;, monospace; font-size: 14px; line-height: 19px; white-space: pre;&quot;&gt;&lt;span style=&quot;color: #0f4a85;&quot;&gt;I&#39;m glad to &lt;/span&gt;&lt;/div&gt;&lt;div style=&quot;color: rgb(41, 41, 41); background-color: rgb(255, 255, 255); font-family: Consolas, &amp;quot;Courier New&amp;quot;, monospace; font-size: 14px; line-height: 19px; white-space: pre;&quot;&gt;&lt;span style=&quot;color: #0f4a85;&quot;&gt;here that!&lt;/span&gt;&lt;/div&gt;&lt;/div&gt;" style="rounded=0;whiteSpace=wrap;html=1;" vertex="1" parent="1">
          <mxGeometry x="380" y="720" width="120" height="60" as="geometry" />
        </mxCell>
        <mxCell id="yBF93ybyriXgRgCDw-TJ-22" value="Not Bad" style="endArrow=classic;html=1;rounded=0;exitX=1;exitY=0.5;exitDx=0;exitDy=0;entryX=0.5;entryY=0;entryDx=0;entryDy=0;" edge="1" parent="1" source="yBF93ybyriXgRgCDw-TJ-13" target="yBF93ybyriXgRgCDw-TJ-21">
          <mxGeometry width="50" height="50" relative="1" as="geometry">
            <mxPoint x="530" y="640" as="sourcePoint" />
            <mxPoint x="580" y="590" as="targetPoint" />
            <Array as="points">
              <mxPoint x="440" y="630" />
            </Array>
          </mxGeometry>
        </mxCell>
        <mxCell id="yBF93ybyriXgRgCDw-TJ-23" value="print&amp;nbsp;&lt;div&gt;&lt;span style=&quot;color: rgb(15, 74, 133); background-color: rgb(255, 255, 255); font-family: Consolas, &amp;quot;Courier New&amp;quot;, monospace; font-size: 14px; white-space: pre;&quot;&gt;Hope you feel &lt;/span&gt;&lt;/div&gt;&lt;div&gt;&lt;span style=&quot;color: rgb(15, 74, 133); background-color: rgb(255, 255, 255); font-family: Consolas, &amp;quot;Courier New&amp;quot;, monospace; font-size: 14px; white-space: pre;&quot;&gt;well soon&lt;/span&gt;&lt;/div&gt;" style="rounded=0;whiteSpace=wrap;html=1;" vertex="1" parent="1">
          <mxGeometry x="530" y="720" width="120" height="60" as="geometry" />
        </mxCell>
        <mxCell id="yBF93ybyriXgRgCDw-TJ-24" value="print&lt;div&gt;&lt;div style=&quot;color: rgb(41, 41, 41); background-color: rgb(255, 255, 255); font-family: Consolas, &amp;quot;Courier New&amp;quot;, monospace; font-size: 14px; line-height: 19px; white-space: pre;&quot;&gt;&lt;span style=&quot;color: #0f4a85;&quot;&gt;I&#39;m glad to &lt;/span&gt;&lt;/div&gt;&lt;div style=&quot;color: rgb(41, 41, 41); background-color: rgb(255, 255, 255); font-family: Consolas, &amp;quot;Courier New&amp;quot;, monospace; font-size: 14px; line-height: 19px; white-space: pre;&quot;&gt;&lt;span style=&quot;color: #0f4a85;&quot;&gt;here that!&lt;/span&gt;&lt;/div&gt;&lt;/div&gt;" style="rounded=0;whiteSpace=wrap;html=1;" vertex="1" parent="1">
          <mxGeometry x="380" y="720" width="120" height="60" as="geometry" />
        </mxCell>
        <mxCell id="yBF93ybyriXgRgCDw-TJ-25" value="print&lt;div&gt;&lt;div style=&quot;color: rgb(41, 41, 41); background-color: rgb(255, 255, 255); font-family: Consolas, &amp;quot;Courier New&amp;quot;, monospace; font-size: 14px; line-height: 19px; white-space: pre;&quot;&gt;&lt;span style=&quot;color: #0f4a85;&quot;&gt;I&#39;m glad to &lt;/span&gt;&lt;/div&gt;&lt;div style=&quot;color: rgb(41, 41, 41); background-color: rgb(255, 255, 255); font-family: Consolas, &amp;quot;Courier New&amp;quot;, monospace; font-size: 14px; line-height: 19px; white-space: pre;&quot;&gt;&lt;span style=&quot;color: #0f4a85;&quot;&gt;here that!&lt;/span&gt;&lt;/div&gt;&lt;/div&gt;" style="rounded=0;whiteSpace=wrap;html=1;" vertex="1" parent="1">
          <mxGeometry x="710" y="720" width="120" height="60" as="geometry" />
        </mxCell>
        <mxCell id="yBF93ybyriXgRgCDw-TJ-26" value="Bad" style="endArrow=classic;html=1;rounded=0;exitX=0;exitY=0.5;exitDx=0;exitDy=0;entryX=0.5;entryY=0;entryDx=0;entryDy=0;" edge="1" parent="1" source="yBF93ybyriXgRgCDw-TJ-14" target="yBF93ybyriXgRgCDw-TJ-23">
          <mxGeometry width="50" height="50" relative="1" as="geometry">
            <mxPoint x="600" y="640" as="sourcePoint" />
            <mxPoint x="650" y="590" as="targetPoint" />
            <Array as="points">
              <mxPoint x="590" y="630" />
            </Array>
          </mxGeometry>
        </mxCell>
        <mxCell id="yBF93ybyriXgRgCDw-TJ-27" value="Good" style="endArrow=classic;html=1;rounded=0;exitX=1;exitY=0.5;exitDx=0;exitDy=0;entryX=0.5;entryY=0;entryDx=0;entryDy=0;" edge="1" parent="1" source="yBF93ybyriXgRgCDw-TJ-14" target="yBF93ybyriXgRgCDw-TJ-25">
          <mxGeometry x="0.25" width="50" height="50" relative="1" as="geometry">
            <mxPoint x="600" y="640" as="sourcePoint" />
            <mxPoint x="650" y="590" as="targetPoint" />
            <Array as="points">
              <mxPoint x="770" y="630" />
            </Array>
            <mxPoint as="offset" />
          </mxGeometry>
        </mxCell>
        <mxCell id="yBF93ybyriXgRgCDw-TJ-28" value="Ask for user&amp;nbsp;&lt;div&gt;activities&lt;/div&gt;" style="shape=parallelogram;perimeter=parallelogramPerimeter;whiteSpace=wrap;html=1;fixedSize=1;" vertex="1" parent="1">
          <mxGeometry x="404" y="850" width="120" height="60" as="geometry" />
        </mxCell>
        <mxCell id="yBF93ybyriXgRgCDw-TJ-29" value="" style="endArrow=classic;html=1;rounded=0;exitX=0.5;exitY=1;exitDx=0;exitDy=0;entryX=0;entryY=0.5;entryDx=0;entryDy=0;" edge="1" parent="1" source="yBF93ybyriXgRgCDw-TJ-17" target="yBF93ybyriXgRgCDw-TJ-35">
          <mxGeometry width="50" height="50" relative="1" as="geometry">
            <mxPoint x="530" y="770" as="sourcePoint" />
            <mxPoint x="400" y="880" as="targetPoint" />
            <Array as="points">
              <mxPoint x="190" y="880" />
            </Array>
          </mxGeometry>
        </mxCell>
        <mxCell id="yBF93ybyriXgRgCDw-TJ-30" value="" style="endArrow=classic;html=1;rounded=0;exitX=0.5;exitY=1;exitDx=0;exitDy=0;entryX=0.5;entryY=0;entryDx=0;entryDy=0;" edge="1" parent="1" source="yBF93ybyriXgRgCDw-TJ-24" target="yBF93ybyriXgRgCDw-TJ-35">
          <mxGeometry width="50" height="50" relative="1" as="geometry">
            <mxPoint x="380" y="810" as="sourcePoint" />
            <mxPoint x="620" y="910" as="targetPoint" />
            <Array as="points">
              <mxPoint x="440" y="810" />
              <mxPoint x="310" y="810" />
            </Array>
          </mxGeometry>
        </mxCell>
        <mxCell id="yBF93ybyriXgRgCDw-TJ-33" value="" style="endArrow=classic;html=1;rounded=0;exitX=0.417;exitY=1;exitDx=0;exitDy=0;exitPerimeter=0;entryX=0.5;entryY=0;entryDx=0;entryDy=0;" edge="1" parent="1" source="yBF93ybyriXgRgCDw-TJ-23" target="yBF93ybyriXgRgCDw-TJ-36">
          <mxGeometry width="50" height="50" relative="1" as="geometry">
            <mxPoint x="530" y="770" as="sourcePoint" />
            <mxPoint x="580" y="720" as="targetPoint" />
            <Array as="points">
              <mxPoint x="580" y="830" />
              <mxPoint x="640" y="830" />
            </Array>
          </mxGeometry>
        </mxCell>
        <mxCell id="yBF93ybyriXgRgCDw-TJ-34" value="" style="endArrow=classic;html=1;rounded=0;exitX=0.5;exitY=1;exitDx=0;exitDy=0;entryX=1;entryY=0.5;entryDx=0;entryDy=0;" edge="1" parent="1" source="yBF93ybyriXgRgCDw-TJ-25" target="yBF93ybyriXgRgCDw-TJ-36">
          <mxGeometry width="50" height="50" relative="1" as="geometry">
            <mxPoint x="770" y="810" as="sourcePoint" />
            <mxPoint x="580" y="750" as="targetPoint" />
            <Array as="points">
              <mxPoint x="770" y="890" />
            </Array>
          </mxGeometry>
        </mxCell>
        <mxCell id="yBF93ybyriXgRgCDw-TJ-35" value="" style="ellipse;whiteSpace=wrap;html=1;aspect=fixed;" vertex="1" parent="1">
          <mxGeometry x="290" y="860" width="40" height="40" as="geometry" />
        </mxCell>
        <mxCell id="yBF93ybyriXgRgCDw-TJ-36" value="" style="ellipse;whiteSpace=wrap;html=1;aspect=fixed;" vertex="1" parent="1">
          <mxGeometry x="620" y="870" width="40" height="40" as="geometry" />
        </mxCell>
        <mxCell id="yBF93ybyriXgRgCDw-TJ-39" value="" style="endArrow=classic;html=1;rounded=0;exitX=1;exitY=0.5;exitDx=0;exitDy=0;entryX=0;entryY=0.5;entryDx=0;entryDy=0;" edge="1" parent="1" source="yBF93ybyriXgRgCDw-TJ-35" target="yBF93ybyriXgRgCDw-TJ-28">
          <mxGeometry width="50" height="50" relative="1" as="geometry">
            <mxPoint x="530" y="770" as="sourcePoint" />
            <mxPoint x="580" y="720" as="targetPoint" />
          </mxGeometry>
        </mxCell>
        <mxCell id="yBF93ybyriXgRgCDw-TJ-40" value="" style="endArrow=classic;html=1;rounded=0;exitX=0;exitY=0.5;exitDx=0;exitDy=0;entryX=1;entryY=0.75;entryDx=0;entryDy=0;" edge="1" parent="1" source="yBF93ybyriXgRgCDw-TJ-36" target="yBF93ybyriXgRgCDw-TJ-28">
          <mxGeometry width="50" height="50" relative="1" as="geometry">
            <mxPoint x="530" y="770" as="sourcePoint" />
            <mxPoint x="580" y="720" as="targetPoint" />
          </mxGeometry>
        </mxCell>
        <mxCell id="yBF93ybyriXgRgCDw-TJ-41" value="&lt;div&gt;Ask user,&lt;/div&gt;&lt;div&gt;How are you&amp;nbsp;&lt;/div&gt;&lt;div&gt;feeling?&lt;/div&gt;" style="shape=parallelogram;perimeter=parallelogramPerimeter;whiteSpace=wrap;html=1;fixedSize=1;" vertex="1" parent="1">
          <mxGeometry x="440" y="370" width="120" height="60" as="geometry" />
        </mxCell>
        <mxCell id="yBF93ybyriXgRgCDw-TJ-43" value="Print activities with statement&amp;nbsp;&lt;div&gt;&lt;span style=&quot;color: rgb(15, 74, 133); background-color: rgb(255, 255, 255); font-family: Consolas, &amp;quot;Courier New&amp;quot;, monospace; font-size: 14px; white-space: pre;&quot;&gt;Sounds very fun!&lt;/span&gt;&lt;/div&gt;" style="rounded=0;whiteSpace=wrap;html=1;" vertex="1" parent="1">
          <mxGeometry x="394" y="940" width="120" height="60" as="geometry" />
        </mxCell>
        <mxCell id="yBF93ybyriXgRgCDw-TJ-44" value="" style="endArrow=classic;html=1;rounded=0;exitX=0.5;exitY=1;exitDx=0;exitDy=0;entryX=0.587;entryY=0.043;entryDx=0;entryDy=0;entryPerimeter=0;" edge="1" parent="1" source="yBF93ybyriXgRgCDw-TJ-28" target="yBF93ybyriXgRgCDw-TJ-43">
          <mxGeometry width="50" height="50" relative="1" as="geometry">
            <mxPoint x="570" y="860" as="sourcePoint" />
            <mxPoint x="620" y="810" as="targetPoint" />
          </mxGeometry>
        </mxCell>
        <mxCell id="yBF93ybyriXgRgCDw-TJ-45" value="&lt;div&gt;Ask user opinion,&lt;/div&gt;&lt;div&gt;&lt;div style=&quot;color: rgb(41, 41, 41); background-color: rgb(255, 255, 255); font-family: Consolas, &amp;quot;Courier New&amp;quot;, monospace; font-size: 14px; line-height: 19px; white-space: pre;&quot;&gt;&lt;span style=&quot;color: rgb(15, 74, 133);&quot;&gt;Are you excited?&lt;/span&gt;&lt;/div&gt;&lt;/div&gt;" style="shape=parallelogram;perimeter=parallelogramPerimeter;whiteSpace=wrap;html=1;fixedSize=1;" vertex="1" parent="1">
          <mxGeometry x="392" y="1050" width="120" height="60" as="geometry" />
        </mxCell>
        <mxCell id="yBF93ybyriXgRgCDw-TJ-46" value="" style="endArrow=classic;html=1;rounded=0;exitX=0.5;exitY=1;exitDx=0;exitDy=0;entryX=0.5;entryY=0;entryDx=0;entryDy=0;" edge="1" parent="1" source="yBF93ybyriXgRgCDw-TJ-43" target="yBF93ybyriXgRgCDw-TJ-45">
          <mxGeometry width="50" height="50" relative="1" as="geometry">
            <mxPoint x="570" y="1080" as="sourcePoint" />
            <mxPoint x="620" y="1030" as="targetPoint" />
          </mxGeometry>
        </mxCell>
        <mxCell id="yBF93ybyriXgRgCDw-TJ-47" value="Opinion Yes/No/&lt;div&gt;Maybe&lt;/div&gt;" style="rhombus;whiteSpace=wrap;html=1;" vertex="1" parent="1">
          <mxGeometry x="411" y="1160" width="80" height="80" as="geometry" />
        </mxCell>
        <mxCell id="yBF93ybyriXgRgCDw-TJ-48" value="" style="endArrow=classic;html=1;rounded=0;exitX=0.5;exitY=1;exitDx=0;exitDy=0;entryX=0.5;entryY=0;entryDx=0;entryDy=0;" edge="1" parent="1" source="yBF93ybyriXgRgCDw-TJ-45" target="yBF93ybyriXgRgCDw-TJ-47">
          <mxGeometry width="50" height="50" relative="1" as="geometry">
            <mxPoint x="570" y="1080" as="sourcePoint" />
            <mxPoint x="620" y="1030" as="targetPoint" />
          </mxGeometry>
        </mxCell>
        <mxCell id="yBF93ybyriXgRgCDw-TJ-49" value="print&amp;nbsp;&lt;div&gt;&lt;span style=&quot;color: rgb(15, 74, 133); background-color: rgb(255, 255, 255); font-family: Consolas, &amp;quot;Courier New&amp;quot;, monospace; font-size: 14px; white-space: pre;&quot;&gt;Keep the &lt;/span&gt;&lt;/div&gt;&lt;div&gt;&lt;span style=&quot;color: rgb(15, 74, 133); background-color: rgb(255, 255, 255); font-family: Consolas, &amp;quot;Courier New&amp;quot;, monospace; font-size: 14px; white-space: pre;&quot;&gt;excitement &lt;/span&gt;&lt;/div&gt;&lt;div&gt;&lt;span style=&quot;color: rgb(15, 74, 133); background-color: rgb(255, 255, 255); font-family: Consolas, &amp;quot;Courier New&amp;quot;, monospace; font-size: 14px; white-space: pre;&quot;&gt;going. &lt;/span&gt;&lt;/div&gt;&lt;div&gt;&lt;span style=&quot;color: rgb(15, 74, 133); background-color: rgb(255, 255, 255); font-family: Consolas, &amp;quot;Courier New&amp;quot;, monospace; font-size: 14px; white-space: pre;&quot;&gt;You&#39;ll &lt;/span&gt;&lt;/div&gt;&lt;div&gt;&lt;span style=&quot;color: rgb(15, 74, 133); background-color: rgb(255, 255, 255); font-family: Consolas, &amp;quot;Courier New&amp;quot;, monospace; font-size: 14px; white-space: pre;&quot;&gt;definitely &lt;/span&gt;&lt;/div&gt;&lt;div&gt;&lt;span style=&quot;color: rgb(15, 74, 133); background-color: rgb(255, 255, 255); font-family: Consolas, &amp;quot;Courier New&amp;quot;, monospace; font-size: 14px; white-space: pre;&quot;&gt;enjoy it!&lt;/span&gt;&lt;/div&gt;" style="rounded=0;whiteSpace=wrap;html=1;" vertex="1" parent="1">
          <mxGeometry x="160" y="1310" width="120" height="130" as="geometry" />
        </mxCell>
        <mxCell id="yBF93ybyriXgRgCDw-TJ-50" value="print&amp;nbsp;&lt;div&gt;&lt;div style=&quot;color: rgb(41, 41, 41); background-color: rgb(255, 255, 255); font-family: Consolas, &amp;quot;Courier New&amp;quot;, monospace; font-size: 14px; line-height: 19px; white-space: pre;&quot;&gt;&lt;div style=&quot;line-height: 19px;&quot;&gt;&lt;span style=&quot;color: #0f4a85;&quot;&gt;Hope you &lt;/span&gt;&lt;/div&gt;&lt;div style=&quot;line-height: 19px;&quot;&gt;&lt;span style=&quot;color: #0f4a85;&quot;&gt;enjoy it then&lt;/span&gt;&lt;/div&gt;&lt;/div&gt;&lt;/div&gt;" style="rounded=0;whiteSpace=wrap;html=1;" vertex="1" parent="1">
          <mxGeometry x="382" y="1310" width="120" height="130" as="geometry" />
        </mxCell>
        <mxCell id="yBF93ybyriXgRgCDw-TJ-51" value="print&amp;nbsp;&lt;div&gt;&lt;div style=&quot;color: rgb(41, 41, 41); background-color: rgb(255, 255, 255); font-family: Consolas, &amp;quot;Courier New&amp;quot;, monospace; font-size: 14px; line-height: 19px; white-space: pre;&quot;&gt;&lt;span style=&quot;color: #0f4a85;&quot;&gt;Don&#39;t be so &lt;/span&gt;&lt;/div&gt;&lt;div style=&quot;color: rgb(41, 41, 41); background-color: rgb(255, 255, 255); font-family: Consolas, &amp;quot;Courier New&amp;quot;, monospace; font-size: 14px; line-height: 19px; white-space: pre;&quot;&gt;&lt;span style=&quot;color: #0f4a85;&quot;&gt;sure, &lt;/span&gt;&lt;/div&gt;&lt;div style=&quot;color: rgb(41, 41, 41); background-color: rgb(255, 255, 255); font-family: Consolas, &amp;quot;Courier New&amp;quot;, monospace; font-size: 14px; line-height: 19px; white-space: pre;&quot;&gt;&lt;span style=&quot;color: #0f4a85;&quot;&gt;grumpypants, &lt;/span&gt;&lt;/div&gt;&lt;div style=&quot;color: rgb(41, 41, 41); background-color: rgb(255, 255, 255); font-family: Consolas, &amp;quot;Courier New&amp;quot;, monospace; font-size: 14px; line-height: 19px; white-space: pre;&quot;&gt;&lt;span style=&quot;color: #0f4a85;&quot;&gt;maybe you&#39;ll &lt;/span&gt;&lt;/div&gt;&lt;div style=&quot;color: rgb(41, 41, 41); background-color: rgb(255, 255, 255); font-family: Consolas, &amp;quot;Courier New&amp;quot;, monospace; font-size: 14px; line-height: 19px; white-space: pre;&quot;&gt;&lt;span style=&quot;color: #0f4a85;&quot;&gt;enjoy it.&lt;/span&gt;&lt;/div&gt;&lt;/div&gt;" style="rounded=0;whiteSpace=wrap;html=1;" vertex="1" parent="1">
          <mxGeometry x="580" y="1310" width="120" height="130" as="geometry" />
        </mxCell>
        <mxCell id="yBF93ybyriXgRgCDw-TJ-52" value="Yes" style="endArrow=classic;html=1;rounded=0;exitX=0;exitY=0.5;exitDx=0;exitDy=0;entryX=0.5;entryY=0;entryDx=0;entryDy=0;" edge="1" parent="1" source="yBF93ybyriXgRgCDw-TJ-47" target="yBF93ybyriXgRgCDw-TJ-49">
          <mxGeometry width="50" height="50" relative="1" as="geometry">
            <mxPoint x="570" y="1300" as="sourcePoint" />
            <mxPoint x="620" y="1250" as="targetPoint" />
            <Array as="points">
              <mxPoint x="220" y="1200" />
            </Array>
          </mxGeometry>
        </mxCell>
        <mxCell id="yBF93ybyriXgRgCDw-TJ-53" value="Maybe" style="endArrow=classic;html=1;rounded=0;exitX=0.5;exitY=1;exitDx=0;exitDy=0;entryX=0.57;entryY=0.026;entryDx=0;entryDy=0;entryPerimeter=0;" edge="1" parent="1" source="yBF93ybyriXgRgCDw-TJ-47" target="yBF93ybyriXgRgCDw-TJ-50">
          <mxGeometry width="50" height="50" relative="1" as="geometry">
            <mxPoint x="570" y="1300" as="sourcePoint" />
            <mxPoint x="620" y="1250" as="targetPoint" />
          </mxGeometry>
        </mxCell>
        <mxCell id="yBF93ybyriXgRgCDw-TJ-54" value="No" style="endArrow=classic;html=1;rounded=0;exitX=1;exitY=0.5;exitDx=0;exitDy=0;entryX=0.5;entryY=0;entryDx=0;entryDy=0;" edge="1" parent="1" source="yBF93ybyriXgRgCDw-TJ-47" target="yBF93ybyriXgRgCDw-TJ-51">
          <mxGeometry width="50" height="50" relative="1" as="geometry">
            <mxPoint x="570" y="1300" as="sourcePoint" />
            <mxPoint x="620" y="1250" as="targetPoint" />
            <Array as="points">
              <mxPoint x="640" y="1200" />
            </Array>
          </mxGeometry>
        </mxCell>
        <mxCell id="yBF93ybyriXgRgCDw-TJ-55" value="" style="ellipse;whiteSpace=wrap;html=1;aspect=fixed;" vertex="1" parent="1">
          <mxGeometry x="406" y="1510" width="70" height="70" as="geometry" />
        </mxCell>
        <mxCell id="yBF93ybyriXgRgCDw-TJ-56" value="" style="endArrow=classic;html=1;rounded=0;exitX=0.5;exitY=1;exitDx=0;exitDy=0;entryX=0.5;entryY=0;entryDx=0;entryDy=0;" edge="1" parent="1" source="yBF93ybyriXgRgCDw-TJ-50" target="yBF93ybyriXgRgCDw-TJ-55">
          <mxGeometry width="50" height="50" relative="1" as="geometry">
            <mxPoint x="570" y="1490" as="sourcePoint" />
            <mxPoint x="620" y="1440" as="targetPoint" />
          </mxGeometry>
        </mxCell>
        <mxCell id="yBF93ybyriXgRgCDw-TJ-57" value="" style="endArrow=classic;html=1;rounded=0;entryX=1;entryY=0.5;entryDx=0;entryDy=0;exitX=0.5;exitY=1;exitDx=0;exitDy=0;" edge="1" parent="1" source="yBF93ybyriXgRgCDw-TJ-51" target="yBF93ybyriXgRgCDw-TJ-55">
          <mxGeometry width="50" height="50" relative="1" as="geometry">
            <mxPoint x="570" y="1490" as="sourcePoint" />
            <mxPoint x="620" y="1440" as="targetPoint" />
            <Array as="points">
              <mxPoint x="640" y="1545" />
            </Array>
          </mxGeometry>
        </mxCell>
        <mxCell id="yBF93ybyriXgRgCDw-TJ-58" value="" style="endArrow=classic;html=1;rounded=0;exitX=0.5;exitY=1;exitDx=0;exitDy=0;entryX=0;entryY=0.5;entryDx=0;entryDy=0;" edge="1" parent="1" source="yBF93ybyriXgRgCDw-TJ-49" target="yBF93ybyriXgRgCDw-TJ-55">
          <mxGeometry width="50" height="50" relative="1" as="geometry">
            <mxPoint x="570" y="1490" as="sourcePoint" />
            <mxPoint x="620" y="1440" as="targetPoint" />
            <Array as="points">
              <mxPoint x="220" y="1550" />
            </Array>
          </mxGeometry>
        </mxCell>
        <mxCell id="yBF93ybyriXgRgCDw-TJ-59" value="&lt;div&gt;Ask user,&lt;/div&gt;&lt;div&gt;&lt;div style=&quot;color: rgb(41, 41, 41); background-color: rgb(255, 255, 255); font-family: Consolas, &amp;quot;Courier New&amp;quot;, monospace; font-size: 14px; line-height: 19px; white-space: pre;&quot;&gt;&lt;div style=&quot;line-height: 19px;&quot;&gt;&lt;span style=&quot;color: #0f4a85;&quot;&gt;When is your &lt;/span&gt;&lt;/div&gt;&lt;div style=&quot;line-height: 19px;&quot;&gt;&lt;span style=&quot;color: #0f4a85;&quot;&gt;birthday?&lt;/span&gt;&lt;/div&gt;&lt;div style=&quot;line-height: 19px;&quot;&gt;&lt;span style=&quot;color: #0f4a85;&quot;&gt;(enter a date &lt;/span&gt;&lt;/div&gt;&lt;div style=&quot;line-height: 19px;&quot;&gt;&lt;span style=&quot;color: #0f4a85;&quot;&gt;in numbers&lt;/span&gt;&lt;/div&gt;&lt;div style=&quot;line-height: 19px;&quot;&gt;&lt;span style=&quot;color: #0f4a85;&quot;&gt;[DD/MM/YYYY])&lt;/span&gt;&lt;/div&gt;&lt;/div&gt;&lt;/div&gt;" style="shape=parallelogram;perimeter=parallelogramPerimeter;whiteSpace=wrap;html=1;fixedSize=1;" vertex="1" parent="1">
          <mxGeometry x="328" y="1632" width="220" height="120" as="geometry" />
        </mxCell>
        <mxCell id="yBF93ybyriXgRgCDw-TJ-60" value="" style="endArrow=classic;html=1;rounded=0;exitX=0.5;exitY=1;exitDx=0;exitDy=0;entryX=0.5;entryY=0;entryDx=0;entryDy=0;" edge="1" parent="1" source="yBF93ybyriXgRgCDw-TJ-55" target="yBF93ybyriXgRgCDw-TJ-59">
          <mxGeometry width="50" height="50" relative="1" as="geometry">
            <mxPoint x="520" y="1530" as="sourcePoint" />
            <mxPoint x="570" y="1480" as="targetPoint" />
          </mxGeometry>
        </mxCell>
        <mxCell id="yBF93ybyriXgRgCDw-TJ-61" value="date of birth is numeric" style="rhombus;whiteSpace=wrap;html=1;" vertex="1" parent="1">
          <mxGeometry x="370" y="1810" width="110" height="90" as="geometry" />
        </mxCell>
        <mxCell id="yBF93ybyriXgRgCDw-TJ-62" value="" style="endArrow=classic;html=1;rounded=0;exitX=0.445;exitY=1.006;exitDx=0;exitDy=0;exitPerimeter=0;entryX=0.5;entryY=0;entryDx=0;entryDy=0;" edge="1" parent="1" source="yBF93ybyriXgRgCDw-TJ-59" target="yBF93ybyriXgRgCDw-TJ-61">
          <mxGeometry width="50" height="50" relative="1" as="geometry">
            <mxPoint x="510" y="1750" as="sourcePoint" />
            <mxPoint x="560" y="1700" as="targetPoint" />
          </mxGeometry>
        </mxCell>
        <mxCell id="yBF93ybyriXgRgCDw-TJ-63" value="No" style="endArrow=classic;html=1;rounded=0;exitX=0;exitY=0.5;exitDx=0;exitDy=0;entryX=0;entryY=0.5;entryDx=0;entryDy=0;" edge="1" parent="1" source="yBF93ybyriXgRgCDw-TJ-61" target="yBF93ybyriXgRgCDw-TJ-59">
          <mxGeometry width="50" height="50" relative="1" as="geometry">
            <mxPoint x="510" y="1750" as="sourcePoint" />
            <mxPoint x="560" y="1700" as="targetPoint" />
            <Array as="points">
              <mxPoint x="260" y="1850" />
              <mxPoint x="260" y="1692" />
            </Array>
          </mxGeometry>
        </mxCell>
        <mxCell id="yBF93ybyriXgRgCDw-TJ-65" value="birth month = current month" style="rhombus;whiteSpace=wrap;html=1;" vertex="1" parent="1">
          <mxGeometry x="370" y="1970" width="110" height="120" as="geometry" />
        </mxCell>
        <mxCell id="yBF93ybyriXgRgCDw-TJ-66" value="Yes" style="endArrow=classic;html=1;rounded=0;exitX=0.5;exitY=1;exitDx=0;exitDy=0;entryX=0.5;entryY=0;entryDx=0;entryDy=0;" edge="1" parent="1" source="yBF93ybyriXgRgCDw-TJ-61" target="yBF93ybyriXgRgCDw-TJ-65">
          <mxGeometry width="50" height="50" relative="1" as="geometry">
            <mxPoint x="510" y="1830" as="sourcePoint" />
            <mxPoint x="560" y="1780" as="targetPoint" />
          </mxGeometry>
        </mxCell>
        <mxCell id="yBF93ybyriXgRgCDw-TJ-69" value="Yes" style="endArrow=classic;html=1;rounded=0;exitX=1;exitY=0.5;exitDx=0;exitDy=0;" edge="1" parent="1" source="yBF93ybyriXgRgCDw-TJ-65" target="yBF93ybyriXgRgCDw-TJ-70">
          <mxGeometry width="50" height="50" relative="1" as="geometry">
            <mxPoint x="510" y="1970" as="sourcePoint" />
            <mxPoint x="620" y="2030" as="targetPoint" />
          </mxGeometry>
        </mxCell>
        <mxCell id="yBF93ybyriXgRgCDw-TJ-70" value="birth day&lt;div&gt;=&lt;/div&gt;&lt;div&gt;current day&lt;/div&gt;" style="rhombus;whiteSpace=wrap;html=1;" vertex="1" parent="1">
          <mxGeometry x="580" y="1976" width="130" height="110" as="geometry" />
        </mxCell>
        <mxCell id="yBF93ybyriXgRgCDw-TJ-71" value="No" style="endArrow=classic;html=1;rounded=0;exitX=0;exitY=0.5;exitDx=0;exitDy=0;entryX=0.5;entryY=0;entryDx=0;entryDy=0;" edge="1" parent="1" source="yBF93ybyriXgRgCDw-TJ-65" target="yBF93ybyriXgRgCDw-TJ-72">
          <mxGeometry x="0.3846" width="50" height="50" relative="1" as="geometry">
            <mxPoint x="510" y="1980" as="sourcePoint" />
            <mxPoint x="210" y="2030" as="targetPoint" />
            <Array as="points">
              <mxPoint x="220" y="2030" />
            </Array>
            <mxPoint as="offset" />
          </mxGeometry>
        </mxCell>
        <mxCell id="yBF93ybyriXgRgCDw-TJ-72" value="birth month &amp;gt; current month" style="rhombus;whiteSpace=wrap;html=1;" vertex="1" parent="1">
          <mxGeometry x="165" y="2140" width="110" height="120" as="geometry" />
        </mxCell>
        <mxCell id="yBF93ybyriXgRgCDw-TJ-74" value="No" style="endArrow=classic;html=1;rounded=0;exitX=1;exitY=0.5;exitDx=0;exitDy=0;entryX=0;entryY=0.5;entryDx=0;entryDy=0;" edge="1" parent="1" source="yBF93ybyriXgRgCDw-TJ-72">
          <mxGeometry width="50" height="50" relative="1" as="geometry">
            <mxPoint x="510" y="2200" as="sourcePoint" />
            <mxPoint x="380" y="2200" as="targetPoint" />
          </mxGeometry>
        </mxCell>
        <mxCell id="yBF93ybyriXgRgCDw-TJ-75" value="Print&amp;nbsp;&lt;div&gt;Advance Happy Birthday&lt;/div&gt;" style="rounded=0;whiteSpace=wrap;html=1;" vertex="1" parent="1">
          <mxGeometry x="160" y="2350" width="120" height="60" as="geometry" />
        </mxCell>
        <mxCell id="yBF93ybyriXgRgCDw-TJ-76" value="Yes" style="endArrow=classic;html=1;rounded=0;exitX=0.5;exitY=1;exitDx=0;exitDy=0;entryX=0.5;entryY=0;entryDx=0;entryDy=0;" edge="1" parent="1" source="yBF93ybyriXgRgCDw-TJ-72" target="yBF93ybyriXgRgCDw-TJ-75">
          <mxGeometry width="50" height="50" relative="1" as="geometry">
            <mxPoint x="510" y="2200" as="sourcePoint" />
            <mxPoint x="560" y="2150" as="targetPoint" />
          </mxGeometry>
        </mxCell>
        <mxCell id="yBF93ybyriXgRgCDw-TJ-77" value="Print&amp;nbsp;&lt;div&gt;Belated Happy Birthday&lt;/div&gt;" style="rounded=0;whiteSpace=wrap;html=1;" vertex="1" parent="1">
          <mxGeometry x="381" y="2170" width="120" height="60" as="geometry" />
        </mxCell>
        <mxCell id="yBF93ybyriXgRgCDw-TJ-78" value="Print&amp;nbsp;&lt;div&gt;Happy Birthday&lt;/div&gt;" style="rounded=0;whiteSpace=wrap;html=1;" vertex="1" parent="1">
          <mxGeometry x="585" y="2180" width="120" height="60" as="geometry" />
        </mxCell>
        <mxCell id="yBF93ybyriXgRgCDw-TJ-79" value="Yes" style="endArrow=classic;html=1;rounded=0;exitX=0.5;exitY=1;exitDx=0;exitDy=0;entryX=0.5;entryY=0;entryDx=0;entryDy=0;" edge="1" parent="1" source="yBF93ybyriXgRgCDw-TJ-70" target="yBF93ybyriXgRgCDw-TJ-78">
          <mxGeometry width="50" height="50" relative="1" as="geometry">
            <mxPoint x="510" y="2200" as="sourcePoint" />
            <mxPoint x="560" y="2150" as="targetPoint" />
          </mxGeometry>
        </mxCell>
        <mxCell id="yBF93ybyriXgRgCDw-TJ-80" value="birth day&lt;div&gt;&amp;gt;&lt;/div&gt;&lt;div&gt;current day&lt;/div&gt;" style="rhombus;whiteSpace=wrap;html=1;" vertex="1" parent="1">
          <mxGeometry x="585" y="2290" width="130" height="110" as="geometry" />
        </mxCell>
        <mxCell id="yBF93ybyriXgRgCDw-TJ-81" value="No" style="endArrow=classic;html=1;rounded=0;exitX=1;exitY=0.5;exitDx=0;exitDy=0;entryX=1;entryY=0.5;entryDx=0;entryDy=0;" edge="1" parent="1" source="yBF93ybyriXgRgCDw-TJ-70" target="yBF93ybyriXgRgCDw-TJ-80">
          <mxGeometry width="50" height="50" relative="1" as="geometry">
            <mxPoint x="510" y="2200" as="sourcePoint" />
            <mxPoint x="560" y="2150" as="targetPoint" />
            <Array as="points">
              <mxPoint x="780" y="2030" />
              <mxPoint x="780" y="2345" />
            </Array>
          </mxGeometry>
        </mxCell>
        <mxCell id="yBF93ybyriXgRgCDw-TJ-82" value="Print&amp;nbsp;&lt;div&gt;Advance Happy Birthday&lt;/div&gt;" style="rounded=0;whiteSpace=wrap;html=1;" vertex="1" parent="1">
          <mxGeometry x="590" y="2450" width="120" height="60" as="geometry" />
        </mxCell>
        <mxCell id="yBF93ybyriXgRgCDw-TJ-83" value="Yes" style="endArrow=classic;html=1;rounded=0;exitX=0.5;exitY=1;exitDx=0;exitDy=0;entryX=0.5;entryY=0;entryDx=0;entryDy=0;" edge="1" parent="1" source="yBF93ybyriXgRgCDw-TJ-80" target="yBF93ybyriXgRgCDw-TJ-82">
          <mxGeometry width="50" height="50" relative="1" as="geometry">
            <mxPoint x="510" y="2300" as="sourcePoint" />
            <mxPoint x="560" y="2250" as="targetPoint" />
          </mxGeometry>
        </mxCell>
        <mxCell id="yBF93ybyriXgRgCDw-TJ-84" value="Print&amp;nbsp;&lt;div&gt;Belated Happy Birthday&lt;/div&gt;" style="rounded=0;whiteSpace=wrap;html=1;" vertex="1" parent="1">
          <mxGeometry x="425" y="2320" width="120" height="60" as="geometry" />
        </mxCell>
        <mxCell id="yBF93ybyriXgRgCDw-TJ-85" value="No" style="endArrow=classic;html=1;rounded=0;exitX=0;exitY=0.5;exitDx=0;exitDy=0;entryX=1.001;entryY=0.387;entryDx=0;entryDy=0;entryPerimeter=0;" edge="1" parent="1" source="yBF93ybyriXgRgCDw-TJ-80" target="yBF93ybyriXgRgCDw-TJ-84">
          <mxGeometry width="50" height="50" relative="1" as="geometry">
            <mxPoint x="510" y="2300" as="sourcePoint" />
            <mxPoint x="560" y="2250" as="targetPoint" />
          </mxGeometry>
        </mxCell>
        <mxCell id="yBF93ybyriXgRgCDw-TJ-86" value="" style="ellipse;whiteSpace=wrap;html=1;aspect=fixed;" vertex="1" parent="1">
          <mxGeometry x="350" y="2440" width="80" height="80" as="geometry" />
        </mxCell>
        <mxCell id="yBF93ybyriXgRgCDw-TJ-87" value="" style="endArrow=classic;html=1;rounded=0;exitX=0.5;exitY=1;exitDx=0;exitDy=0;entryX=0.5;entryY=0;entryDx=0;entryDy=0;" edge="1" parent="1" source="yBF93ybyriXgRgCDw-TJ-77" target="yBF93ybyriXgRgCDw-TJ-86">
          <mxGeometry width="50" height="50" relative="1" as="geometry">
            <mxPoint x="510" y="2300" as="sourcePoint" />
            <mxPoint x="560" y="2250" as="targetPoint" />
            <Array as="points">
              <mxPoint x="440" y="2290" />
              <mxPoint x="390" y="2290" />
            </Array>
          </mxGeometry>
        </mxCell>
        <mxCell id="yBF93ybyriXgRgCDw-TJ-88" value="" style="endArrow=classic;html=1;rounded=0;exitX=0.5;exitY=1;exitDx=0;exitDy=0;entryX=0;entryY=0.5;entryDx=0;entryDy=0;" edge="1" parent="1" source="yBF93ybyriXgRgCDw-TJ-75" target="yBF93ybyriXgRgCDw-TJ-86">
          <mxGeometry width="50" height="50" relative="1" as="geometry">
            <mxPoint x="510" y="2300" as="sourcePoint" />
            <mxPoint x="560" y="2250" as="targetPoint" />
            <Array as="points">
              <mxPoint x="220" y="2480" />
            </Array>
          </mxGeometry>
        </mxCell>
        <mxCell id="yBF93ybyriXgRgCDw-TJ-89" value="" style="endArrow=classic;html=1;rounded=0;exitX=0.5;exitY=1;exitDx=0;exitDy=0;entryX=1;entryY=0;entryDx=0;entryDy=0;" edge="1" parent="1" source="yBF93ybyriXgRgCDw-TJ-84" target="yBF93ybyriXgRgCDw-TJ-86">
          <mxGeometry width="50" height="50" relative="1" as="geometry">
            <mxPoint x="510" y="2300" as="sourcePoint" />
            <mxPoint x="560" y="2250" as="targetPoint" />
            <Array as="points">
              <mxPoint x="485" y="2452" />
            </Array>
          </mxGeometry>
        </mxCell>
        <mxCell id="yBF93ybyriXgRgCDw-TJ-90" value="" style="endArrow=classic;html=1;rounded=0;exitX=0;exitY=0.5;exitDx=0;exitDy=0;entryX=1;entryY=0.5;entryDx=0;entryDy=0;" edge="1" parent="1" source="yBF93ybyriXgRgCDw-TJ-82" target="yBF93ybyriXgRgCDw-TJ-86">
          <mxGeometry width="50" height="50" relative="1" as="geometry">
            <mxPoint x="510" y="2300" as="sourcePoint" />
            <mxPoint x="560" y="2250" as="targetPoint" />
          </mxGeometry>
        </mxCell>
        <mxCell id="yBF93ybyriXgRgCDw-TJ-91" value="&lt;div&gt;Ask user,&lt;/div&gt;&lt;div&gt;&lt;div style=&quot;color: rgb(41, 41, 41); background-color: rgb(255, 255, 255); font-family: Consolas, &amp;quot;Courier New&amp;quot;, monospace; font-size: 14px; line-height: 19px; white-space: pre;&quot;&gt;&lt;div style=&quot;line-height: 19px;&quot;&gt;&lt;span style=&quot;color: rgb(15, 74, 133);&quot;&gt;what are your &lt;/span&gt;&lt;/div&gt;&lt;div style=&quot;line-height: 19px;&quot;&gt;&lt;span style=&quot;color: rgb(15, 74, 133);&quot;&gt;hobbies?&lt;/span&gt;&lt;/div&gt;&lt;/div&gt;&lt;/div&gt;" style="shape=parallelogram;perimeter=parallelogramPerimeter;whiteSpace=wrap;html=1;fixedSize=1;" vertex="1" parent="1">
          <mxGeometry x="330" y="2580" width="120" height="60" as="geometry" />
        </mxCell>
        <mxCell id="yBF93ybyriXgRgCDw-TJ-93" value="Print&amp;nbsp;&lt;div&gt;Hobbies with statement&amp;nbsp;&lt;/div&gt;&lt;div&gt;&lt;span style=&quot;color: rgb(15, 74, 133); background-color: rgb(255, 255, 255); font-family: Consolas, &amp;quot;Courier New&amp;quot;, monospace; font-size: 14px; white-space: pre;&quot;&gt;Sounds really &lt;/span&gt;&lt;/div&gt;&lt;div&gt;&lt;span style=&quot;color: rgb(15, 74, 133); background-color: rgb(255, 255, 255); font-family: Consolas, &amp;quot;Courier New&amp;quot;, monospace; font-size: 14px; white-space: pre;&quot;&gt;fun.&lt;/span&gt;&lt;/div&gt;" style="rounded=0;whiteSpace=wrap;html=1;" vertex="1" parent="1">
          <mxGeometry x="330" y="2670" width="120" height="90" as="geometry" />
        </mxCell>
        <mxCell id="yBF93ybyriXgRgCDw-TJ-94" value="" style="endArrow=classic;html=1;rounded=0;exitX=0.5;exitY=1;exitDx=0;exitDy=0;entryX=0.5;entryY=0;entryDx=0;entryDy=0;" edge="1" parent="1" source="yBF93ybyriXgRgCDw-TJ-86" target="yBF93ybyriXgRgCDw-TJ-91">
          <mxGeometry width="50" height="50" relative="1" as="geometry">
            <mxPoint x="490" y="2710" as="sourcePoint" />
            <mxPoint x="540" y="2660" as="targetPoint" />
          </mxGeometry>
        </mxCell>
        <mxCell id="yBF93ybyriXgRgCDw-TJ-97" value="" style="endArrow=classic;html=1;rounded=0;exitX=0.5;exitY=1;exitDx=0;exitDy=0;entryX=0.5;entryY=0;entryDx=0;entryDy=0;" edge="1" parent="1" source="yBF93ybyriXgRgCDw-TJ-91" target="yBF93ybyriXgRgCDw-TJ-93">
          <mxGeometry width="50" height="50" relative="1" as="geometry">
            <mxPoint x="490" y="2710" as="sourcePoint" />
            <mxPoint x="540" y="2660" as="targetPoint" />
          </mxGeometry>
        </mxCell>
        <mxCell id="yBF93ybyriXgRgCDw-TJ-98" value="Print&amp;nbsp;&lt;div&gt;Bye statement&lt;/div&gt;" style="rounded=1;whiteSpace=wrap;html=1;" vertex="1" parent="1">
          <mxGeometry x="330" y="2830" width="120" height="60" as="geometry" />
        </mxCell>
        <mxCell id="yBF93ybyriXgRgCDw-TJ-99" value="" style="endArrow=classic;html=1;rounded=0;exitX=0.5;exitY=1;exitDx=0;exitDy=0;entryX=0.5;entryY=0;entryDx=0;entryDy=0;" edge="1" parent="1" source="yBF93ybyriXgRgCDw-TJ-93" target="yBF93ybyriXgRgCDw-TJ-98">
          <mxGeometry width="50" height="50" relative="1" as="geometry">
            <mxPoint x="490" y="2710" as="sourcePoint" />
            <mxPoint x="540" y="2660" as="targetPoint" />
          </mxGeometry>
        </mxCell>
      </root>
    </mxGraphModel>
  </diagram>
</mxfile>
